<?xml version="1.0" encoding="UTF-8"?>
<svg id="Layer_1" data-name="Layer 1" xmlns="http://www.w3.org/2000/svg" xmlns:xlink="http://www.w3.org/1999/xlink" viewBox="0 0 1187 473">
  <defs>
    <style>
      .cls-1 {
        fill: url(#linear-gradient-2);
      }

      .cls-2 {
        fill: #fff;
      }

      .cls-3 {
        fill: #61fffc;
      }

      .cls-4 {
        fill: url(#linear-gradient);
      }

      .cls-5 {
        fill: #666;
      }
    </style>
    <linearGradient id="linear-gradient" x1="167.58" y1="192.16" x2="192.66" y2="198.88" gradientUnits="userSpaceOnUse">
      <stop offset="0" stop-color="#000"/>
      <stop offset="0" stop-color="#000"/>
      <stop offset=".11" stop-color="#1f1f1f"/>
      <stop offset=".23" stop-color="#393939"/>
      <stop offset=".36" stop-color="#4d4d4d"/>
      <stop offset=".51" stop-color="#5b5b5b"/>
      <stop offset=".69" stop-color="#636363"/>
      <stop offset="1" stop-color="#666"/>
    </linearGradient>
    <linearGradient id="linear-gradient-2" x1="-3980.5" y1="192.16" x2="-3955.42" y2="198.88" gradientTransform="translate(-3829.17) rotate(-180) scale(1 -1)" gradientUnits="userSpaceOnUse">
      <stop offset="0" stop-color="#000"/>
      <stop offset="0" stop-color="#000"/>
      <stop offset=".11" stop-color="#1f1f1f"/>
      <stop offset=".23" stop-color="#393939"/>
      <stop offset=".36" stop-color="#4d4d4d"/>
      <stop offset=".51" stop-color="#5b5b5b"/>
      <stop offset=".69" stop-color="#636363"/>
      <stop offset="1" stop-color="#666"/>
    </linearGradient>
  </defs>
  <path class="cls-3" d="m119.3,309.61c-.06,0-.12,0-.18,0-17.25,0-31.23-10.49-31.23-23.42,0-11.67,11.4-21.32,26.29-23.1-.16-.96-.27-1.93-.27-2.92,0-12.42,12.89-22.55,29.18-23.34l6.24-27.76,8.53-37.95c-2.87-1.15-7.51-3.95-7.51-7.24,0-4.31,6.1-10.41,10.41-10.41s10.41,6.1,10.41,10.41c0,3.94-5.52,7.16-9.31,7.7l12.44,54.78c17,.21,30.7,10.6,30.7,23.4,0,6.01-3.05,11.48-8.01,15.62.07,0,.13,0,.2,0,17.25,0,31.23,10.49,31.23,23.42,0,9.29-7.23,17.29-17.68,21.08,0,.12.02.24.03.37h36.83l-47.1-208.64h-81.88l-46.61,208.64h48.07c-.26-.21-.51-.42-.77-.63Z"/>
  <g>
    <path class="cls-3" d="m360.73,297.75l-14.94,12.49h-74.73l-15.13-12.49v-37.46h39.73v14h24.21v-27.05h-41.43l-22.51-25.16v-59.59l15.13-12.49h74.73l14.94,12.49v38.21h-39.54v-14.76h-24.78v25.16h36.51l27.81,24.4v62.24Z"/>
    <path class="cls-3" d="m396.48,185.38h-27.43v-35.19h96.11v35.19h-28v124.86h-40.67v-124.86Z"/>
    <path class="cls-3" d="m524.47,244.59c1.95-1.39,4.03-2.84,6.24-4.35,2.2-1.51,4.32-2.96,6.34-4.35,2.02-1.39,3.47-2.39,4.35-3.03,1.13-.76,2.46-1.73,3.97-2.93,1.51-1.2,2.27-1.99,2.27-2.36v-41.24h-30.46v123.92h-43.7v-160.05h97.81l17.03,14.57v75.49c-.13.13-.54.47-1.23,1.04-.7.57-1.58,1.29-2.65,2.18-1.07.88-1.92,1.58-2.55,2.08l-10.59,7.19c-1.64.88-2.46,1.51-2.46,1.89l25.54,55.62h-42.19l-31.78-62.81c.76-.5,2.11-1.45,4.07-2.84Z"/>
    <path class="cls-3" d="m707.5,295.86l-18.92,14.38h-66.4l-19.49-14.38v-133l15.13-12.68h74.73l14.94,12.68v133Zm-64.13-23.27h23.27v-86.27h-23.27v86.27Z"/>
    <path class="cls-2" d="m715.83,310.24v-160.05h89.86l14.94,12.68v147.38h-40.86v-123.92h-22.89v123.92h-41.05Z"/>
    <path class="cls-2" d="m933.77,295.86l-18.92,14.38h-66.4l-19.49-14.38v-133l15.13-12.68h74.73l14.94,12.68v133Zm-64.13-23.27h23.27v-86.27h-23.27v86.27Z"/>
    <path class="cls-2" d="m969.53,185.38h-27.43v-35.19h96.11v35.19h-28v124.86h-40.67v-124.86Z"/>
    <path class="cls-2" d="m1046.52,150.19h88.16c-4.42,23.46-6.81,35.19-7.19,35.19h-38.21v25.16h28.38l-9.08,39.54h-19.3v19.68h47.67l-9.46,40.49h-80.97v-160.05Z"/>
  </g>
  <g id="rocket">
    <path class="cls-4" d="m171.17,178.76v21.51s17.87,12.14,17.87,12.14l-3.4-25.1s-7.23-7.73-14.46-8.54Z"/>
    <path class="cls-1" d="m147.75,178.76v21.51l-17.87,12.14,3.4-25.1s7.23-7.73,14.46-8.54Z"/>
    <path class="cls-5" d="m176.33,172.34l-16.63-39.69-16.35,39.92c-.98,2.4-1.21,5.24-.63,7.87l4.85,22.01,3.41.79c5.77,1.34,11.67,1.33,17.44-.03l3.21-.76,5.28-21.78c.7-2.76.49-5.8-.58-8.33Zm-16.48-2.51c-3.73,0-6.75-3.02-6.75-6.75s3.02-6.75,6.75-6.75,6.75,3.02,6.75,6.75-3.02,6.75-6.75,6.75Z"/>
  </g>
</svg>