<?xml version="1.0" encoding="UTF-8"?>
<svg id="Layer_1" data-name="Layer 1" xmlns="http://www.w3.org/2000/svg" xmlns:xlink="http://www.w3.org/1999/xlink" viewBox="0 0 1187 473">
  <defs>
    <style>
      .cls-1 {
        clip-path: url(#clippath-2);
      }

      .cls-2 {
        clip-path: url(#clippath-6);
      }

      .cls-3 {
        fill: #de9a36;
      }

      .cls-4 {
        opacity: .69;
        stroke: #00008b;
        stroke-dasharray: 0 2;
        stroke-width: 2px;
      }

      .cls-4, .cls-5, .cls-6 {
        fill: none;
      }

      .cls-4, .cls-6 {
        stroke-miterlimit: 10;
      }

      .cls-7 {
        clip-path: url(#clippath-1);
      }

      .cls-8 {
        clip-path: url(#clippath-4);
      }

      .cls-9 {
        fill: #fff;
        font-family: Candara-Bold, Candara;
        font-size: 250px;
        font-weight: 700;
      }

      .cls-10 {
        clip-path: url(#clippath);
      }

      .cls-11 {
        clip-path: url(#clippath-3);
      }

      .cls-12 {
        clip-path: url(#clippath-5);
      }

      .cls-6 {
        stroke: #1a1a1a;
        stroke-width: 6px;
      }
    </style>
    <clipPath id="clippath">
      <path class="cls-5" d="m766.23,52.58v52.04h24.99v-52.04h-24.99Zm8.58,46.54c-.52.37-1.06.66-1.62.86l-1.16-.37c-2.19-3.15-3.76-8.23-4.44-14.3h7.96,0s.13.26.13.26c.48,3.53,1.38,6.71,2.47,8.74v.94c-.79,1.52-1.98,2.9-3.34,3.87Z"/>
    </clipPath>
    <clipPath id="clippath-1">
      <path class="cls-5" d="m829.03,52.58v52.04h24.99v-52.04h-24.99Zm11.05,40.82c-.78,1.32-1.77,2.42-2.79,3.11-.53.36-1.14.55-1.77.55-.85,0-1.68-.34-2.35-.95l-.12-.11-.31-.43c-1.06-2.71-1.85-6.11-2.29-9.83l.29-.43h7.46l.29.27c.36,2.63.94,5.03,1.67,6.96l-.08.87Z"/>
    </clipPath>
    <clipPath id="clippath-2">
      <path class="cls-5" d="m891.83,52.58v52.04h24.99v-52.04h-24.99Zm11.92,44.9c-1.3,1.65-2.83,1.79-4.45,1.94l-1.09.11-.93-.46c-2.43-3.85-3.51-9.19-3.99-13l.31-.75h7.66c.69,5.25,2.09,8.66,3.1,9.98l.1,1.05c-.2.41-.44.79-.72,1.14Z"/>
    </clipPath>
    <clipPath id="clippath-3">
      <path class="cls-5" d="m954.63,52.58v52.04h24.99v-52.04h-24.99Zm12.08,43.97c-1.3,2.06-3.88,2.8-5.69,2.8h-.16s-.16-.02-.16-.02l-.76-.47c-2.43-3.99-3.48-9.46-3.92-13.35l.15-.19h7.77l.12.11c.8,6.02,2.4,8.83,2.87,9.55l.08.94c-.12.27-.2.46-.31.63Z"/>
    </clipPath>
    <clipPath id="clippath-4">
      <path class="cls-5" d="m1017.43,52.58v52.04h24.99v-52.04h-24.99Zm12.09,43.19c-.42.61-.97,1.19-1.58,1.67-1.21.96-2.57,1.85-4.31,1.9l-.88-.48c-2.4-3.93-3.45-9.31-3.9-13.14l.23-.42h7.77c.75,5.71,2.25,8.62,2.7,9.38l-.04,1.08Z"/>
    </clipPath>
    <clipPath id="clippath-5">
      <path class="cls-5" d="m703.42,52.58v52.04h24.99v-52.04h-24.99Zm12.33,47.16c-.96,1.09-2.39,1.74-3.83,1.74-.34,0-.67-.04-.99-.11l-.5-.28c-1.13-1.19-2.14-2.8-2.99-4.78l-.08-.31-.05-.63c-.03-.35-.17-.62-.52-1.01l-.21-.37c-.8-2.47-1.39-5.31-1.76-8.43l.12-.25h7.87l.05.07c.9,6.75,2.88,9.97,3.47,10.31l-.18.41.88.58c-.19,1.3-.61,2.31-1.27,3.06Z"/>
    </clipPath>
    <clipPath id="clippath-6">
      <path class="cls-5" d="m1080.23,52.58v52.04h24.99v-52.04h-24.99Zm10.3,46.22c-.55.55-1.15,1.14-1.81,1.49-.35.19-.76.31-1.26.38l-.92-.37c-2.45-3.08-4.2-8.37-4.94-14.89l.08-.09h7.97c.78,5.94,2.35,8.82,2.82,9.55l.08.9c-.45,1.12-1.13,2.14-2.03,3.03Z"/>
    </clipPath>
  </defs>
  <g>
    <g>
      <g>
        <ellipse class="cls-6" cx="778.72" cy="78.6" rx="7.49" ry="21.02"/>
        <ellipse class="cls-6" cx="841.52" cy="78.6" rx="7.49" ry="21.02"/>
        <ellipse class="cls-6" cx="904.32" cy="78.6" rx="7.49" ry="21.02"/>
        <ellipse class="cls-6" cx="967.12" cy="78.6" rx="7.49" ry="21.02"/>
        <ellipse class="cls-6" cx="1029.92" cy="78.6" rx="7.49" ry="21.02"/>
        <ellipse class="cls-6" cx="715.92" cy="78.6" rx="7.49" ry="21.02"/>
        <ellipse class="cls-6" cx="1092.72" cy="78.6" rx="7.49" ry="21.02"/>
      </g>
      <path class="cls-3" d="m1041.19,219.84c-.88-1.92-1.93-3.76-3.15-5.5-4.64-6.67-10.99-10.01-19.09-10.01-10.06,0-17.43,2.96-22.09,8.85,0,2.27,0,4.49.01,6.66.09,21.66.64,38.21,1.62,49.68.46.36.94.7,1.44,1.03,4.37,2.88,9.83,4.32,16.39,4.32,6.15,0,11.29-1.44,15.42-4.32,2.41-1.66,4.46-3.82,6.18-6.45,4.71-7.18,7.06-15.87,7.06-26.07,0-6.73-1.26-12.79-3.79-18.18Zm0,0c-.88-1.92-1.93-3.76-3.15-5.5-4.64-6.67-10.99-10.01-19.09-10.01-10.06,0-17.43,2.96-22.09,8.85,0,2.27,0,4.49.01,6.66.09,21.66.64,38.21,1.62,49.68.46.36.94.7,1.44,1.03,4.37,2.88,9.83,4.32,16.39,4.32,6.15,0,11.29-1.44,15.42-4.32,2.41-1.66,4.46-3.82,6.18-6.45,4.71-7.18,7.06-15.87,7.06-26.07,0-6.73-1.26-12.79-3.79-18.18Zm0,0c-.88-1.92-1.93-3.76-3.15-5.5-4.64-6.67-10.99-10.01-19.09-10.01-10.06,0-17.43,2.96-22.09,8.85,0,2.27,0,4.49.01,6.66.09,21.66.64,38.21,1.62,49.68.46.36.94.7,1.44,1.03,4.37,2.88,9.83,4.32,16.39,4.32,6.15,0,11.29-1.44,15.42-4.32,2.41-1.66,4.46-3.82,6.18-6.45,4.71-7.18,7.06-15.87,7.06-26.07,0-6.73-1.26-12.79-3.79-18.18Zm0,0c-.88-1.92-1.93-3.76-3.15-5.5-4.64-6.67-10.99-10.01-19.09-10.01-10.06,0-17.43,2.96-22.09,8.85,0,2.27,0,4.49.01,6.66.09,21.66.64,38.21,1.62,49.68.46.36.94.7,1.44,1.03,4.37,2.88,9.83,4.32,16.39,4.32,6.15,0,11.29-1.44,15.42-4.32,2.41-1.66,4.46-3.82,6.18-6.45,4.71-7.18,7.06-15.87,7.06-26.07,0-6.73-1.26-12.79-3.79-18.18Zm-156.58,50.7c2.56,1.43,5.72,2.14,9.45,2.14,5.04,0,9.67-.71,13.89-2.14h-23.34Zm-92.05-58.28c-3.27-4.06-8.68-6.08-16.18-6.08-7.95,0-15.75,2.67-23.4,7.99v5.66h42.87c-.8-3.34-1.9-5.85-3.3-7.58Zm310.33-126.94h-413.23c-18.29,0-33.11,14.83-33.11,33.11v232.54c0,18.29,14.83,33.1,33.11,33.1h413.23c18.29,0,33.11-14.81,33.11-33.1V118.43c0-18.29-14.83-33.11-33.11-33.11Zm-307.8,206.29c.62-7.1,1.11-14.11,1.5-21.07.61-11.1.91-22.02.91-32.74,0-7.47-.55-13.46-1.63-17.96-.8-3.34-1.9-5.85-3.3-7.58-3.27-4.06-8.68-6.08-16.18-6.08-7.95,0-15.75,2.67-23.4,7.99v5.66c.03,18.91.19,35.82.51,50.7.15,7.53.34,14.56.58,21.07h-29.09c.24-6.64.43-13.65.61-21.07.34-15.26.53-32.16.58-50.7.01-3.12.01-6.28.01-9.49,0-15.06-.3-28.81-.91-41.23-.56-11.57-1.4-22-2.48-31.29l30.94-1.74c-.55,11.78-.97,22.79-1.23,33.02-.27,10.18-.4,19.57-.4,28.21h1.41c9.63-8.82,20.63-13.24,33.04-13.24,11.74,0,20.93,2.67,27.6,7.99,6.61,5.27,9.95,14.53,10.01,27.75v.36c0,1.38-.09,4.2-.27,8.47-.19,4.26-.28,7.1-.28,8.48,0,8.32.09,19.46.25,33.4.09,6.42.18,13.44.3,21.07h-29.09Zm125.55.76c-1.17-3.94-1.75-7.07-1.75-9.4h-1.75c-9.55,7.87-20.71,11.81-33.46,11.81-12.03,0-21.1-3.15-27.19-9.46-3.13-3.25-5.45-8.17-6.97-14.77-1.44-6.19-2.15-13.86-2.15-23.01,0-2.26.04-5.42.16-9.51.1-4.09.16-7.67.16-10.73,0-2.14-.04-4.64-.15-7.46-.27-7.81-.92-18.24-1.93-31.26l30.51-1.08c-.95,11.25-1.5,22.03-1.68,32.34-.06,2.51-.07,5.01-.07,7.46,0,17.87,1.32,29.89,4,36.1,1.38,3.22,3.46,5.6,6.24,7.15,2.56,1.43,5.72,2.14,9.45,2.14,5.04,0,9.67-.71,13.89-2.14,2.93-.98,5.66-2.32,8.2-3.98,0-18.42-.09-33.99-.3-46.72-.22-13.79-.55-24.24-1.01-31.36l29.52-.98c-.48,9.02-.79,19.8-.95,32.34-.09,6.6-.13,13.68-.13,21.24,0,9.63.34,19.45,1.05,29.46.46,6.89,1.1,13.88,1.9,20.95l-25.6.88Zm144.09-21.82c-1.26,2.15-2.67,4.25-4.22,6.3-9.03,11.96-21.47,17.93-37.29,17.93-11.66,0-19.91-2.48-24.72-7.43h-1.41l-2.2,4.26h-25.7c.25-6.91.48-13.93.67-21.07.43-16.33.67-33.23.74-50.7.01-3.15.01-6.31.01-9.49,0-14.54-.36-28.29-1.05-41.23-.59-11.01-1.46-21.42-2.56-31.29l31.39-1.74c-.43,10.21-.74,21.21-.92,33.02-.12,7.84-.18,16.04-.18,24.6h1.32c7.35-6.49,17.31-9.73,29.85-9.73,14.01,0,25.11,5.05,33.31,15.15,5.02,6.18,8.5,13.07,10.44,20.69,1.23,4.83,1.86,9.94,1.86,15.33,0,13.12-3.11,24.91-9.34,35.37Zm-26.68-56.2c-4.64-6.67-10.99-10.01-19.09-10.01-10.06,0-17.43,2.96-22.09,8.85,0,2.27,0,4.49.01,6.66.09,21.66.64,38.21,1.62,49.68.46.36.94.7,1.44,1.03,4.37,2.88,9.83,4.32,16.39,4.32,6.15,0,11.29-1.44,15.42-4.32,2.41-1.66,4.46-3.82,6.18-6.45,4.71-7.18,7.06-15.87,7.06-26.07,0-6.73-1.26-12.79-3.79-18.18-.88-1.92-1.93-3.76-3.15-5.5Zm-245.48-2.08c-3.27-4.06-8.68-6.08-16.18-6.08-7.95,0-15.75,2.67-23.4,7.99v5.66h42.87c-.8-3.34-1.9-5.85-3.3-7.58Zm248.63,7.58c-.88-1.92-1.93-3.76-3.15-5.5-4.64-6.67-10.99-10.01-19.09-10.01-10.06,0-17.43,2.96-22.09,8.85,0,2.27,0,4.49.01,6.66.09,21.66.64,38.21,1.62,49.68.46.36.94.7,1.44,1.03,4.37,2.88,9.83,4.32,16.39,4.32,6.15,0,11.29-1.44,15.42-4.32,2.41-1.66,4.46-3.82,6.18-6.45,4.71-7.18,7.06-15.87,7.06-26.07,0-6.73-1.26-12.79-3.79-18.18Zm0,0c-.88-1.92-1.93-3.76-3.15-5.5-4.64-6.67-10.99-10.01-19.09-10.01-10.06,0-17.43,2.96-22.09,8.85,0,2.27,0,4.49.01,6.66.09,21.66.64,38.21,1.62,49.68.46.36.94.7,1.44,1.03,4.37,2.88,9.83,4.32,16.39,4.32,6.15,0,11.29-1.44,15.42-4.32,2.41-1.66,4.46-3.82,6.18-6.45,4.71-7.18,7.06-15.87,7.06-26.07,0-6.73-1.26-12.79-3.79-18.18Z"/>
      <g class="cls-10">
        <ellipse class="cls-6" cx="778.72" cy="78.6" rx="7.49" ry="21.02"/>
      </g>
      <g class="cls-7">
        <ellipse class="cls-6" cx="841.52" cy="78.6" rx="7.49" ry="21.02"/>
      </g>
      <g class="cls-1">
        <ellipse class="cls-6" cx="904.32" cy="78.6" rx="7.49" ry="21.02"/>
      </g>
      <g class="cls-11">
        <ellipse class="cls-6" cx="967.12" cy="78.6" rx="7.49" ry="21.02"/>
      </g>
      <g class="cls-8">
        <ellipse class="cls-6" cx="1029.92" cy="78.6" rx="7.49" ry="21.02"/>
      </g>
      <g class="cls-12">
        <ellipse class="cls-6" cx="715.92" cy="78.6" rx="7.49" ry="21.02"/>
      </g>
      <g class="cls-2">
        <ellipse class="cls-6" cx="1092.72" cy="78.6" rx="7.49" ry="21.02"/>
      </g>
    </g>
    <line class="cls-4" x1="685.17" y1="118.41" x2="1108.26" y2="118.41"/>
    <line class="cls-4" x1="685.17" y1="321.25" x2="1108.26" y2="321.25"/>
    <line class="cls-4" x1="796.59" y1="270.54" x2="753.49" y2="270.54"/>
    <line class="cls-4" x1="969.85" y1="270.54" x2="944.33" y2="270.54"/>
    <line class="cls-4" x1="1031.74" y1="270.54" x2="999.93" y2="270.54"/>
    <line class="cls-4" x1="1108.26" y1="270.54" x2="1064.72" y2="270.54"/>
    <line class="cls-4" x1="907.95" y1="270.54" x2="884.61" y2="270.54"/>
    <line class="cls-4" x1="849.52" y1="270.54" x2="823.88" y2="270.54"/>
    <line class="cls-4" x1="725.59" y1="270.54" x2="685.17" y2="270.54"/>
    <line class="cls-4" x1="847.54" y1="219.84" x2="824.17" y2="219.84"/>
    <line class="cls-4" x1="915.85" y1="219.84" x2="874.45" y2="219.84"/>
    <line class="cls-4" x1="1108.26" y1="219.84" x2="1072.21" y2="219.84"/>
    <line class="cls-4" x1="1041.19" y1="219.84" x2="996.87" y2="219.84"/>
    <line class="cls-4" x1="970.59" y1="219.84" x2="943.41" y2="219.84"/>
    <line class="cls-4" x1="795.86" y1="219.84" x2="752.98" y2="219.84"/>
    <line class="cls-4" x1="726.17" y1="219.84" x2="685.17" y2="219.84"/>
    <line class="cls-4" x1="1108.26" y1="169.12" x2="997.47" y2="169.12"/>
    <line class="cls-4" x1="969.55" y1="169.12" x2="752.51" y2="169.12"/>
    <line class="cls-4" x1="725.28" y1="169.12" x2="685.17" y2="169.12"/>
  </g>
  <text class="cls-9" transform="translate(88.04 307.23) scale(1.01 1)"><tspan x="0" y="0">Note</tspan></text>
</svg>